<svg width="40" height="40" viewBox="0 0 40 40" fill="none" xmlns="http://www.w3.org/2000/svg">
<path d="M33.3333 20V31C33.3333 32.8856 33.3333 33.8284 32.7475 34.4142C32.1618 35 31.2189 35 29.3333 35H10.8333C9.74772 35 9.20492 35 8.76455 34.8612C7.83105 34.5668 7.09984 33.8356 6.80551 32.9021C6.66666 32.4617 6.66666 31.9189 6.66666 30.8333M6.66666 30.8333V9C6.66666 7.11438 6.66666 6.17157 7.25245 5.58579C7.83824 5 8.78104 5 10.6667 5H29.3333C31.2189 5 32.1618 5 32.7475 5.58579C33.3333 6.17157 33.3333 7.11438 33.3333 9V22.6667C33.3333 24.5523 33.3333 25.4951 32.7475 26.0809C32.1618 26.6667 31.2189 26.6667 29.3333 26.6667H10.8333C9.74772 26.6667 9.20492 26.6667 8.76455 26.8055C7.83105 27.0998 7.09984 27.8311 6.80551 28.7645C6.66666 29.2049 6.66666 29.7477 6.66666 30.8333Z" stroke="white" stroke-width="3"/>
<path d="M15 16.6666L17.6262 19.2929C18.0168 19.6834 18.6499 19.6834 19.0404 19.2929L25 13.3333" stroke="white" stroke-width="2" stroke-linecap="round"/>
</svg>
