<svg width="47" height="47" viewBox="0 0 47 47" fill="none" xmlns="http://www.w3.org/2000/svg">
<path d="M9.79166 24.9876C9.79166 22.3286 9.79166 20.9992 10.3292 19.8305C10.8666 18.6619 11.876 17.7967 13.8949 16.0663L15.8532 14.3877C19.5022 11.26 21.3267 9.69617 23.5 9.69617C25.6733 9.69617 27.4978 11.26 31.1468 14.3877L33.1051 16.0663C35.1239 17.7967 36.1334 18.6619 36.6708 19.8305C37.2083 20.9992 37.2083 22.3286 37.2083 24.9876V33.2917C37.2083 36.9843 37.2083 38.8307 36.0612 39.9778C34.914 41.125 33.0677 41.125 29.375 41.125H17.625C13.9323 41.125 12.086 41.125 10.9388 39.9778C9.79166 38.8307 9.79166 36.9843 9.79166 33.2917V24.9876Z" stroke="white" stroke-width="3"/>
<path d="M28.3958 41.125V30.375C28.3958 29.8227 27.9481 29.375 27.3958 29.375H19.6042C19.0519 29.375 18.6042 29.8227 18.6042 30.375V41.125" stroke="white" stroke-width="2" stroke-linecap="round" stroke-linejoin="round"/>
</svg>
