<svg width="45" height="45" viewBox="0 0 45 45" fill="none" xmlns="http://www.w3.org/2000/svg">
<path d="M30.9375 38.4375H14.0625" stroke="white" stroke-width="3" stroke-linecap="round"/>
<path d="M23.5 34.6875C23.5 35.2398 23.0523 35.6875 22.5 35.6875C21.9477 35.6875 21.5 35.2398 21.5 34.6875H22.5H23.5ZM22.5 34.6875H21.5V30H22.5H23.5V34.6875H22.5Z" fill="white"/>
<path d="M19.6875 17.8125H25.3125" stroke="white" stroke-width="2" stroke-linecap="round"/>
<path d="M10.3125 27.1875C10.3125 27.1875 6.5625 24.375 6.5625 19.6875C6.5625 18.2525 6.5625 16.9932 6.5625 15.9365C6.5625 14.2934 6.5625 13.4719 7.01648 12.9187C7.09959 12.8174 7.19245 12.7246 7.29371 12.6415C7.84689 12.1875 8.66876 12.1875 10.3125 12.1875C11.9562 12.1875 12.7781 12.1875 13.3313 12.6415C13.4326 12.7246 13.5254 12.8174 13.6085 12.9187C14.0625 13.4719 14.0625 14.2938 14.0625 15.9375V17.8125" stroke="white" stroke-width="3" stroke-linecap="round"/>
<path d="M34.6875 27.1875C34.6875 27.1875 38.4375 24.375 38.4375 19.6875C38.4375 18.2525 38.4375 16.9932 38.4375 15.9365C38.4375 14.2934 38.4375 13.4719 37.9835 12.9187C37.9004 12.8174 37.8076 12.7246 37.7063 12.6415C37.1531 12.1875 36.3312 12.1875 34.6875 12.1875C33.0438 12.1875 32.2219 12.1875 31.6687 12.6415C31.5674 12.7246 31.4746 12.8174 31.3915 12.9187C30.9375 13.4719 30.9375 14.2938 30.9375 15.9375V17.8125" stroke="white" stroke-width="3" stroke-linecap="round"/>
<path d="M30.9375 23.1718V12.3125C30.9375 11.2079 30.0421 10.3125 28.9375 10.3125H16.0625C14.9579 10.3125 14.0625 11.2079 14.0625 12.3125V23.1718C14.0625 24.5092 14.7309 25.7581 15.8437 26.5L21.9453 30.5677C22.2812 30.7916 22.7188 30.7916 23.0547 30.5677L29.1563 26.5C30.2691 25.7581 30.9375 24.5092 30.9375 23.1718Z" stroke="white" stroke-width="3"/>
</svg>
