<svg preserveAspectRatio="xMidYMid meet" width="100%" height="100%" overflow="visible" style="display: block;" viewBox="0 0 197 197" fill="none" xmlns="http://www.w3.org/2000/svg">
<g id="Group 8">
<path id="Star 4" d="M123.032 33.7122C124.927 31.9921 127.967 33.2821 128.046 35.8401L128.532 51.4078C128.594 53.4109 130.565 54.7907 132.469 54.1638L147.262 49.2913C149.693 48.4907 151.946 50.9057 150.978 53.275L145.089 67.6942C144.332 69.5494 145.571 71.6117 147.565 71.8132L163.062 73.3791C165.608 73.6363 166.683 76.7588 164.836 78.5297L153.591 89.3071C152.145 90.6938 152.438 93.082 154.178 94.077L167.698 101.81C169.919 103.081 169.632 106.371 167.223 107.237L152.568 112.51C150.682 113.188 149.979 115.489 151.163 117.106L160.369 129.669C161.881 131.734 160.281 134.622 157.728 134.434L142.195 133.29C140.196 133.142 138.618 134.959 139.043 136.917L142.342 152.139C142.884 154.64 140.247 156.628 137.992 155.418L124.267 148.054C122.501 147.107 120.321 148.124 119.912 150.086L116.735 165.334C116.213 167.839 112.995 168.582 111.427 166.56L101.884 154.251C100.656 152.667 98.2503 152.709 97.0789 154.335L87.9746 166.972C86.4787 169.049 83.2367 168.419 82.6269 165.934L78.9156 150.807C78.438 148.861 76.2231 147.921 74.4916 148.93L61.0343 156.772C58.8232 158.06 56.1176 156.166 56.5715 153.648L59.3335 138.319C59.6889 136.347 58.0477 134.587 56.0555 134.805L40.5722 136.495C38.0281 136.773 36.3268 133.942 37.7658 131.826L46.5237 118.946C47.6506 117.289 46.8669 115.014 44.9585 114.402L30.1263 109.649C27.6892 108.868 27.2863 105.59 29.4617 104.242L42.7011 96.0379C44.4046 94.9823 44.614 92.5853 43.1193 91.2503L31.5029 80.875C29.5942 79.1702 30.5593 76.0118 33.0949 75.6651L48.5266 73.5553C50.5122 73.2838 51.6784 71.1792 50.856 69.3517L44.4638 55.1485C43.4135 52.8148 45.5799 50.322 48.0373 51.0367L62.993 55.3859C64.9173 55.9455 66.8387 54.4972 66.8307 52.4931L66.7681 36.918C66.7579 34.3588 69.7508 32.9627 71.7051 34.615L83.5989 44.6713C85.1292 45.9652 87.4736 45.4236 88.2813 43.5896L94.5592 29.3355C95.5907 26.9934 98.8927 26.9353 100.006 29.2397L106.781 43.2642C107.653 45.0686 110.015 45.5274 111.499 44.1805L123.032 33.7122Z" fill="url(#paint0_linear_0_4)"/>
<g id="Group 6">
<circle id="Ellipse 3" cx="76.2075" cy="91.1172" r="18.1077" fill="var(--fill-0, white)"/>
<circle id="Ellipse 4" cx="114.435" cy="91.1172" r="18.1077" fill="var(--fill-0, white)"/>
<circle id="Ellipse 5" cx="75.956" cy="86.3387" r="13.3293" fill="var(--fill-0, #FE9012)"/>
<circle id="Ellipse 6" cx="114.183" cy="86.3387" r="13.3293" fill="var(--fill-0, #FE9012)"/>
<path id="Star 4_2" d="M71.4556 78.8325C71.5986 76.5958 74.4785 75.7881 75.7637 77.6242V77.6242C76.1602 78.1906 76.7924 78.5565 77.4803 78.6247V78.6247C79.7416 78.8489 80.56 81.7671 78.7451 83.1344V83.1344C78.193 83.5504 77.8433 84.1918 77.7991 84.8817V84.8817C77.6562 87.1184 74.7762 87.9261 73.491 86.0899V86.0899C73.0945 85.5236 72.4623 85.1576 71.7744 85.0894V85.0894C69.5131 84.8652 68.6947 81.9471 70.5096 80.5797V80.5797C71.0618 80.1637 71.4115 79.5224 71.4556 78.8325V78.8325Z" fill="var(--fill-0, #FDD400)"/>
<path id="Star 5" d="M109.683 78.8325C109.826 76.5958 112.706 75.7881 113.991 77.6242V77.6242C114.388 78.1906 115.02 78.5565 115.708 78.6247V78.6247C117.969 78.8489 118.787 81.7671 116.972 83.1344V83.1344C116.42 83.5504 116.071 84.1918 116.026 84.8817V84.8817C115.883 87.1184 113.004 87.9261 111.718 86.0899V86.0899C111.322 85.5236 110.69 85.1576 110.002 85.0894V85.0894C107.74 84.8652 106.922 81.9471 108.737 80.5797V80.5797C109.289 80.1637 109.639 79.5224 109.683 78.8325V78.8325Z" fill="var(--fill-0, #FDD400)"/>
</g>
</g>
<defs>
<linearGradient id="paint0_linear_0_4" x1="127.844" y1="29.344" x2="69.156" y2="167.656" gradientUnits="userSpaceOnUse">
<stop stop-color="#00C3D0"/>
<stop offset="1" stop-color="#EFFFA0"/>
</linearGradient>
</defs>
</svg>
